<svg xmlns="http://www.w3.org/2000/svg" width="100%" height="100%" viewBox="0 0 1200 360"><defs><linearGradient id="bgGrad" x1="0%" x2="100%" y1="0%" y2="100%"><stop offset="0%" stop-color="#0f172a"/><stop offset="50%" stop-color="#1e1b4b"/><stop offset="100%" stop-color="#0f172a"/></linearGradient><linearGradient id="titleGrad" x1="0%" x2="100%" y1="0%" y2="0%"><stop offset="0%" stop-color="#38bdf8"/><stop offset="50%" stop-color="#818cf8"/><stop offset="100%" stop-color="#c084fc"/></linearGradient><linearGradient id="glowGrad" x1="0%" x2="100%" y1="0%" y2="100%"><stop offset="0%" stop-color="#6366f1" stop-opacity=".3"/><stop offset="100%" stop-color="#a855f7" stop-opacity="0"/></linearGradient><filter id="glow" width="140%" height="140%" x="-20%" y="-20%"><feGaussianBlur result="blur" stdDeviation="8"/><feComposite in="SourceGraphic" in2="blur" operator="over"/></filter><style>@keyframes floatSlow{0%{transform:translateY(0) rotate(0deg)}50%{transform:translateY(-12px) rotate(1deg)}}@keyframes pulseGlow{0%{opacity:.2;transform:scale(1)}50%{opacity:.4;transform:scale(1.05)}}@keyframes dashMove{0%{stroke-dashoffset:100}}.badge-text,.subtitle,.title{font-family:system-ui,-apple-system,&apos;Segoe UI&apos;,Roboto,Helvetica,Arial,sans-serif}.title{font-weight:800;font-size:48px;fill:url(#titleGrad)}.subtitle{font-weight:400;font-size:20px;fill:#cbd5e1}.badge-text{font-weight:600;font-size:14px;fill:#f8fafc}.floating-node{animation:floatSlow 6s ease-in-out infinite}.pulse-bg{animation:pulseGlow 4s ease-in-out infinite;transform-origin:center}.connecting-line{stroke-dasharray:8 8;animation:dashMove 20s linear infinite}</style></defs><rect width="1200" height="360" fill="url(#bgGrad)" rx="16"/><rect width="1200" height="360" fill="none" stroke="#334155" stroke-width="2" rx="16"/><circle cx="200" cy="100" r="140" fill="url(#glowGrad)" class="pulse-bg"/><circle cx="1000" cy="260" r="160" fill="url(#glowGrad)" class="pulse-bg" style="animation-delay:-2s"/><g stroke="#475569" stroke-width="1.5" opacity=".3"><path fill="none" d="M 100 280 Q 300 320 500 280 T 900 300 T 1100 240" class="connecting-line"/><path fill="none" d="M 150 80 Q 400 40 700 90 T 1050 70" class="connecting-line" style="animation-duration:15s"/></g><g class="floating-node" opacity=".4"><rect width="180" height="42" x="880" y="50" fill="#1e293b" stroke="#6366f1" stroke-width="1.5" rx="21"/><text x="910" y="76" fill="#a5b4fc" class="badge-text">⚡ Hybrid Search</text></g><g class="floating-node" opacity=".4" style="animation-delay:-3s"><rect width="160" height="42" x="920" y="240" fill="#1e293b" stroke="#a855f7" stroke-width="1.5" rx="21"/><text x="950" y="266" fill="#f0abfc" class="badge-text">🤖 RAG &amp; AI</text></g><g><g transform="translate(80, 0) translate(0, 110)"><rect width="72" height="72" x="0" y="0" fill="#1e1b4b" stroke="#818cf8" stroke-width="2" filter="url(#glow)" rx="18"/><path fill="none" stroke="#38bdf8" stroke-linecap="round" stroke-width="4" d="M26 40 A 12 12 0 1 1 40 26 A 12 12 0 0 1 26 40 Z M35 35 L48 48"/><path fill="#c084fc" d="M46 20 L48 24 L52 26 L48 28 L46 32 L44 28 L40 26 L44 24 Z"/></g><text x="96" y="145" class="title" transform="translate(80, 0)">Awesome Enterprise Search Platform 🔍</text><text x="96" y="188" class="subtitle" transform="translate(80, 0)">Curated Landscape of Workplace Search, AI/RAG Discovery &amp; Search Engines</text><g transform="translate(80, 0) translate(96, 220)"><rect width="140" height="34" x="0" y="0" fill="#0f172a" stroke="#38bdf8" stroke-width="1.5" rx="8"/><text x="14" y="22" fill="#7dd3fc" class="badge-text">☁️ SaaS &amp; Hosted</text><rect width="150" height="34" x="152" y="0" fill="#0f172a" stroke="#4ade80" stroke-width="1.5" rx="8"/><text x="166" y="22" fill="#86efac" class="badge-text">⚡ Open-Source</text><rect width="160" height="34" x="314" y="0" fill="#0f172a" stroke="#c084fc" stroke-width="1.5" rx="8"/><text x="328" y="22" fill="#f0abfc" class="badge-text">🧠 AI / RAG Native</text><rect width="180" height="34" x="486" y="0" fill="#0f172a" stroke="#fbbf24" stroke-width="1.5" rx="8"/><text x="500" y="22" fill="#fde047" class="badge-text">🔒 Permission-Aware</text></g></g></svg>